<svg xmlns="http://www.w3.org/2000/svg" xmlns:xlink="http://www.w3.org/1999/xlink" width="500" zoomAndPan="magnify" viewBox="0 0 375 374.999991" height="500" preserveAspectRatio="xMidYMid meet" version="1.0"><defs><g/><clipPath id="7e54374886"><path d="M 86.796875 83.269531 L 295.296875 83.269531 L 295.296875 291.769531 L 86.796875 291.769531 Z M 86.796875 83.269531 " clip-rule="nonzero"/></clipPath><clipPath id="3a3e316217"><path d="M 164 131.160156 L 217.933594 131.160156 L 217.933594 204 L 164 204 Z M 164 131.160156 " clip-rule="nonzero"/></clipPath></defs><path fill="#0097b2" d="M 200.671875 259.035156 L 181.371094 259.035156 C 181.214844 259.039062 181.078125 258.988281 180.964844 258.878906 C 180.851562 258.769531 180.792969 258.632812 180.792969 258.476562 C 180.792969 258.316406 180.851562 258.183594 180.964844 258.074219 C 181.078125 257.964844 181.214844 257.914062 181.371094 257.917969 L 200.671875 257.917969 C 200.828125 257.914062 200.964844 257.964844 201.078125 258.074219 C 201.191406 258.183594 201.25 258.316406 201.25 258.476562 C 201.25 258.632812 201.191406 258.769531 201.078125 258.878906 C 200.964844 258.988281 200.828125 259.039062 200.671875 259.035156 Z M 200.671875 259.035156 " fill-opacity="1" fill-rule="nonzero"/><path fill="#0097b2" d="M 191.023438 287.394531 C 187.664062 287.398438 184.3125 287.234375 180.964844 286.898438 C 177.621094 286.5625 174.304688 286.0625 171.011719 285.390625 C 167.71875 284.71875 164.46875 283.882812 161.257812 282.882812 C 158.050781 281.882812 154.902344 280.726562 151.808594 279.40625 C 148.71875 278.085938 145.703125 276.617188 142.757812 274.992188 C 139.816406 273.367188 136.964844 271.597656 134.203125 269.6875 C 131.4375 267.773438 128.777344 265.726562 126.222656 263.542969 C 123.667969 261.363281 121.226562 259.058594 118.90625 256.628906 C 118.820312 256.535156 118.78125 256.425781 118.785156 256.300781 C 118.792969 256.175781 118.839844 256.070312 118.929688 255.984375 C 119.019531 255.894531 119.128906 255.851562 119.253906 255.851562 C 119.378906 255.855469 119.484375 255.898438 119.574219 255.984375 C 120.726562 257.1875 121.90625 258.355469 123.117188 259.496094 C 124.328125 260.640625 125.566406 261.75 126.832031 262.828125 C 128.097656 263.90625 129.390625 264.953125 130.707031 265.96875 C 132.027344 266.980469 133.371094 267.960938 134.738281 268.90625 C 136.105469 269.851562 137.496094 270.761719 138.910156 271.640625 C 140.324219 272.515625 141.761719 273.355469 143.21875 274.15625 C 144.671875 274.960938 146.148438 275.726562 147.644531 276.457031 C 149.140625 277.1875 150.652344 277.875 152.183594 278.53125 C 153.710938 279.183594 155.257812 279.796875 156.816406 280.371094 C 158.378906 280.945312 159.953125 281.480469 161.539062 281.976562 C 163.128906 282.472656 164.726562 282.925781 166.339844 283.34375 C 167.949219 283.757812 169.570312 284.128906 171.199219 284.464844 C 172.828125 284.796875 174.464844 285.089844 176.109375 285.339844 C 177.753906 285.589844 179.40625 285.800781 181.058594 285.964844 C 182.714844 286.132812 184.371094 286.257812 186.035156 286.34375 C 187.695312 286.425781 189.355469 286.46875 191.019531 286.46875 C 192.683594 286.46875 194.347656 286.425781 196.007812 286.34375 C 197.667969 286.257812 199.328125 286.132812 200.980469 285.964844 C 202.636719 285.800781 204.285156 285.589844 205.929688 285.339844 C 207.574219 285.089844 209.210938 284.796875 210.839844 284.464844 C 212.46875 284.128906 214.089844 283.757812 215.703125 283.34375 C 217.3125 282.925781 218.910156 282.472656 220.5 281.976562 C 222.085938 281.480469 223.660156 280.945312 225.222656 280.371094 C 226.78125 279.796875 228.328125 279.183594 229.859375 278.53125 C 231.386719 277.875 232.902344 277.1875 234.394531 276.457031 C 235.890625 275.726562 237.367188 274.960938 238.824219 274.15625 C 240.28125 273.355469 241.714844 272.515625 243.128906 271.640625 C 244.542969 270.761719 245.933594 269.851562 247.300781 268.90625 C 248.671875 267.960938 250.011719 266.980469 251.332031 265.96875 C 252.652344 264.953125 253.945312 263.90625 255.210938 262.828125 C 256.476562 261.75 257.714844 260.640625 258.921875 259.496094 C 260.132812 258.355469 261.3125 257.1875 262.464844 255.984375 C 262.554688 255.898438 262.664062 255.855469 262.789062 255.851562 C 262.914062 255.851562 263.019531 255.894531 263.109375 255.984375 C 263.199219 256.070312 263.25 256.175781 263.253906 256.300781 C 263.257812 256.425781 263.21875 256.535156 263.136719 256.628906 C 260.8125 259.058594 258.375 261.363281 255.816406 263.542969 C 253.261719 265.726562 250.601562 267.773438 247.839844 269.6875 C 245.078125 271.597656 242.226562 273.367188 239.28125 274.992188 C 236.339844 276.613281 233.324219 278.085938 230.234375 279.40625 C 227.144531 280.722656 223.992188 281.882812 220.785156 282.882812 C 217.578125 283.882812 214.328125 284.71875 211.035156 285.390625 C 207.742188 286.058594 204.421875 286.5625 201.078125 286.898438 C 197.734375 287.234375 194.382812 287.398438 191.023438 287.394531 Z M 259.417969 200.160156 C 259.390625 200.160156 259.363281 200.15625 259.335938 200.152344 C 259.210938 200.128906 259.109375 200.066406 259.039062 199.960938 C 258.964844 199.855469 258.9375 199.742188 258.960938 199.613281 C 259.171875 198.441406 259.347656 197.261719 259.496094 196.078125 C 259.644531 194.894531 259.761719 193.707031 259.847656 192.519531 C 259.9375 191.328125 259.992188 190.136719 260.015625 188.945312 C 260.042969 187.753906 260.035156 186.558594 260 185.367188 C 259.960938 184.175781 259.894531 182.984375 259.796875 181.796875 C 259.695312 180.609375 259.566406 179.421875 259.40625 178.242188 C 259.246094 177.058594 259.054688 175.882812 258.835938 174.710938 C 258.613281 173.539062 258.363281 172.371094 258.082031 171.214844 C 257.800781 170.054688 257.488281 168.902344 257.148438 167.761719 C 256.804688 166.617188 256.433594 165.484375 256.035156 164.359375 C 255.636719 163.238281 255.207031 162.125 254.75 161.023438 C 254.289062 159.921875 253.804688 158.832031 253.289062 157.757812 C 252.777344 156.679688 252.234375 155.617188 251.664062 154.570312 C 251.097656 153.523438 250.5 152.488281 249.878906 151.472656 C 249.253906 150.453125 248.605469 149.453125 247.929688 148.46875 C 247.257812 147.488281 246.554688 146.519531 245.832031 145.574219 C 245.105469 144.625 244.359375 143.699219 243.585938 142.789062 C 242.8125 141.882812 242.015625 140.992188 241.199219 140.125 C 240.378906 139.257812 239.539062 138.414062 238.675781 137.589844 C 237.8125 136.765625 236.929688 135.964844 236.023438 135.1875 C 235.121094 134.410156 234.195312 133.65625 233.253906 132.925781 C 232.308594 132.195312 231.347656 131.492188 230.367188 130.8125 C 229.386719 130.132812 228.390625 129.476562 227.378906 128.851562 C 226.363281 128.222656 225.335938 127.621094 224.289062 127.042969 C 223.246094 126.46875 222.183594 125.921875 221.113281 125.402344 C 220.039062 124.882812 218.953125 124.390625 217.851562 123.925781 C 216.753906 123.464844 215.644531 123.027344 214.523438 122.621094 C 213.402344 122.214844 212.269531 121.839844 211.128906 121.492188 C 209.988281 121.144531 208.839844 120.828125 207.679688 120.539062 C 206.523438 120.25 205.359375 119.992188 204.1875 119.765625 C 203.019531 119.539062 201.84375 119.339844 200.660156 119.175781 C 199.480469 119.007812 198.296875 118.871094 197.105469 118.765625 C 195.917969 118.660156 194.730469 118.585938 193.539062 118.542969 C 192.34375 118.5 191.152344 118.488281 189.960938 118.507812 C 188.769531 118.523438 187.578125 118.574219 186.386719 118.65625 C 185.195312 118.734375 184.007812 118.847656 182.824219 118.988281 C 181.640625 119.128906 180.460938 119.300781 179.285156 119.503906 C 178.109375 119.707031 176.941406 119.941406 175.777344 120.203125 C 174.613281 120.46875 173.457031 120.761719 172.3125 121.085938 C 171.164062 121.410156 170.023438 121.761719 168.894531 122.144531 C 167.765625 122.527344 166.644531 122.9375 165.535156 123.378906 C 164.429688 123.820312 163.332031 124.289062 162.25 124.785156 C 161.164062 125.28125 160.09375 125.808594 159.035156 126.359375 C 157.980469 126.914062 156.9375 127.492188 155.910156 128.101562 C 154.882812 128.707031 153.875 129.339844 152.878906 130 C 151.886719 130.660156 150.910156 131.34375 149.953125 132.054688 C 148.992188 132.765625 148.054688 133.5 147.132812 134.257812 C 146.214844 135.015625 145.3125 135.796875 144.433594 136.601562 C 143.554688 137.410156 142.695312 138.238281 141.859375 139.085938 C 141.019531 139.9375 140.207031 140.808594 139.414062 141.699219 C 138.625 142.589844 137.855469 143.503906 137.109375 144.433594 C 136.367188 145.367188 135.648438 146.316406 134.953125 147.285156 C 134.257812 148.257812 133.585938 149.242188 132.941406 150.246094 C 132.300781 151.25 131.679688 152.269531 131.089844 153.304688 C 130.5 154.34375 129.933594 155.394531 129.398438 156.457031 C 128.863281 157.523438 128.355469 158.601562 127.871094 159.695312 C 127.390625 160.785156 126.941406 161.886719 126.515625 163.003906 C 126.09375 164.117188 125.699219 165.242188 125.332031 166.378906 C 124.96875 167.515625 124.632812 168.660156 124.328125 169.8125 C 124.019531 170.964844 123.746094 172.125 123.5 173.292969 C 123.253906 174.460938 123.039062 175.632812 122.855469 176.808594 C 122.667969 177.988281 122.515625 179.171875 122.390625 180.355469 C 122.269531 181.542969 122.175781 182.730469 122.113281 183.921875 C 122.050781 185.113281 122.019531 186.304688 122.019531 187.5 C 122.019531 191.570312 122.375 195.609375 123.082031 199.617188 C 123.105469 199.742188 123.078125 199.859375 123.003906 199.964844 C 122.929688 200.070312 122.832031 200.132812 122.707031 200.15625 C 122.578125 200.175781 122.464844 200.152344 122.359375 200.078125 C 122.253906 200.003906 122.1875 199.90625 122.167969 199.777344 C 121.953125 198.589844 121.773438 197.394531 121.625 196.195312 C 121.472656 194.996094 121.355469 193.792969 121.265625 192.585938 C 121.179688 191.382812 121.121094 190.175781 121.097656 188.964844 C 121.070312 187.757812 121.078125 186.546875 121.113281 185.339844 C 121.152344 184.132812 121.21875 182.925781 121.320312 181.71875 C 121.421875 180.515625 121.550781 179.316406 121.714844 178.117188 C 121.875 176.917969 122.070312 175.726562 122.292969 174.539062 C 122.515625 173.351562 122.773438 172.167969 123.058594 170.996094 C 123.34375 169.820312 123.660156 168.652344 124.003906 167.496094 C 124.351562 166.335938 124.726562 165.1875 125.132812 164.050781 C 125.535156 162.910156 125.972656 161.78125 126.433594 160.667969 C 126.898438 159.550781 127.390625 158.445312 127.914062 157.355469 C 128.433594 156.265625 128.984375 155.1875 129.558594 154.125 C 130.136719 153.0625 130.742188 152.019531 131.371094 150.988281 C 132.003906 149.957031 132.660156 148.941406 133.34375 147.945312 C 134.027344 146.949219 134.738281 145.96875 135.472656 145.007812 C 136.207031 144.050781 136.964844 143.109375 137.75 142.1875 C 138.53125 141.269531 139.339844 140.367188 140.167969 139.488281 C 141 138.609375 141.851562 137.753906 142.726562 136.917969 C 143.597656 136.082031 144.496094 135.273438 145.410156 134.484375 C 146.328125 133.695312 147.261719 132.929688 148.21875 132.191406 C 149.175781 131.453125 150.148438 130.738281 151.144531 130.046875 C 152.136719 129.359375 153.148438 128.695312 154.175781 128.058594 C 155.203125 127.421875 156.246094 126.8125 157.304688 126.230469 C 158.363281 125.648438 159.4375 125.09375 160.523438 124.566406 C 161.613281 124.039062 162.714844 123.539062 163.828125 123.070312 C 164.941406 122.601562 166.066406 122.160156 167.203125 121.746094 C 168.339844 121.335938 169.484375 120.953125 170.640625 120.601562 C 171.796875 120.25 172.964844 119.929688 174.136719 119.636719 C 175.308594 119.34375 176.488281 119.082031 177.675781 118.851562 C 178.863281 118.621094 180.054688 118.421875 181.25 118.253906 C 182.449219 118.085938 183.648438 117.945312 184.851562 117.839844 C 186.058594 117.734375 187.261719 117.660156 188.472656 117.613281 C 189.679688 117.570312 190.886719 117.558594 192.097656 117.578125 C 193.304688 117.59375 194.511719 117.644531 195.71875 117.726562 C 196.925781 117.808594 198.128906 117.921875 199.328125 118.0625 C 200.527344 118.207031 201.722656 118.382812 202.914062 118.585938 C 204.105469 118.792969 205.292969 119.03125 206.46875 119.296875 C 207.648438 119.5625 208.820312 119.863281 209.984375 120.191406 C 211.148438 120.515625 212.300781 120.875 213.445312 121.261719 C 214.59375 121.652344 215.726562 122.066406 216.847656 122.515625 C 217.972656 122.960938 219.082031 123.4375 220.183594 123.941406 C 221.28125 124.445312 222.367188 124.976562 223.4375 125.535156 C 224.507812 126.097656 225.5625 126.683594 226.605469 127.300781 C 227.644531 127.914062 228.667969 128.558594 229.675781 129.226562 C 230.683594 129.894531 231.671875 130.585938 232.644531 131.308594 C 233.617188 132.027344 234.566406 132.769531 235.5 133.539062 C 236.433594 134.308594 237.347656 135.101562 238.238281 135.917969 C 239.128906 136.734375 240 137.570312 240.847656 138.433594 C 241.695312 139.292969 242.519531 140.175781 243.324219 141.082031 C 244.125 141.984375 244.902344 142.910156 245.660156 143.855469 C 246.414062 144.800781 247.140625 145.761719 247.847656 146.746094 C 248.550781 147.726562 249.230469 148.726562 249.882812 149.746094 C 250.535156 150.761719 251.160156 151.796875 251.761719 152.84375 C 252.359375 153.894531 252.929688 154.960938 253.476562 156.039062 C 254.019531 157.121094 254.535156 158.210938 255.019531 159.320312 C 255.507812 160.425781 255.964844 161.542969 256.394531 162.671875 C 256.824219 163.804688 257.226562 164.945312 257.59375 166.09375 C 257.964844 167.246094 258.304688 168.40625 258.613281 169.574219 C 258.925781 170.742188 259.203125 171.917969 259.453125 173.101562 C 259.703125 174.285156 259.921875 175.472656 260.109375 176.664062 C 260.292969 177.859375 260.449219 179.058594 260.578125 180.261719 C 260.703125 181.464844 260.796875 182.667969 260.859375 183.875 C 260.921875 185.082031 260.953125 186.289062 260.953125 187.5 C 260.953125 191.625 260.59375 195.71875 259.875 199.777344 C 259.855469 199.890625 259.800781 199.980469 259.714844 200.050781 C 259.628906 200.125 259.53125 200.160156 259.417969 200.160156 Z M 289.714844 200.160156 C 289.695312 200.160156 289.675781 200.160156 289.65625 200.15625 C 289.527344 200.140625 289.425781 200.082031 289.347656 199.980469 C 289.265625 199.878906 289.234375 199.765625 289.25 199.640625 C 289.746094 195.605469 289.992188 191.558594 289.992188 187.496094 C 289.992188 132.925781 245.59375 88.527344 191.023438 88.527344 C 136.449219 88.527344 92.050781 132.925781 92.050781 187.5 C 92.050781 191.5625 92.296875 195.609375 92.789062 199.640625 C 92.804688 199.769531 92.769531 199.882812 92.691406 199.984375 C 92.613281 200.085938 92.511719 200.140625 92.382812 200.15625 C 92.253906 200.171875 92.140625 200.140625 92.039062 200.0625 C 91.9375 199.984375 91.882812 199.882812 91.863281 199.753906 C 91.371094 195.683594 91.121094 191.597656 91.121094 187.5 C 91.121094 185.046875 91.210938 182.597656 91.390625 180.148438 C 91.570312 177.703125 91.839844 175.265625 92.203125 172.839844 C 92.5625 170.414062 93.011719 168.003906 93.546875 165.609375 C 94.085938 163.21875 94.710938 160.847656 95.421875 158.5 C 96.132812 156.152344 96.929688 153.832031 97.8125 151.542969 C 98.695312 149.257812 99.664062 147.003906 100.710938 144.785156 C 101.761719 142.566406 102.890625 140.390625 104.097656 138.257812 C 105.308594 136.125 106.59375 134.035156 107.957031 131.996094 C 109.320312 129.957031 110.753906 127.96875 112.265625 126.035156 C 113.773438 124.101562 115.351562 122.226562 117 120.410156 C 118.648438 118.589844 120.359375 116.835938 122.136719 115.144531 C 123.910156 113.453125 125.75 111.828125 127.644531 110.273438 C 129.539062 108.71875 131.492188 107.234375 133.496094 105.820312 C 135.503906 104.40625 137.558594 103.070312 139.660156 101.808594 C 141.765625 100.550781 143.914062 99.367188 146.105469 98.265625 C 148.296875 97.160156 150.523438 96.140625 152.789062 95.203125 C 155.058594 94.261719 157.355469 93.410156 159.683594 92.640625 C 162.011719 91.871094 164.367188 91.1875 166.746094 90.589844 C 169.125 89.996094 171.523438 89.488281 173.941406 89.066406 C 176.359375 88.648438 178.789062 88.316406 181.230469 88.078125 C 183.671875 87.835938 186.117188 87.6875 188.570312 87.625 C 191.023438 87.566406 193.472656 87.597656 195.921875 87.71875 C 198.375 87.835938 200.816406 88.046875 203.25 88.347656 C 205.683594 88.648438 208.105469 89.039062 210.511719 89.515625 C 212.917969 89.996094 215.300781 90.5625 217.667969 91.214844 C 220.03125 91.871094 222.367188 92.609375 224.675781 93.4375 C 226.988281 94.261719 229.261719 95.171875 231.503906 96.167969 C 233.75 97.160156 235.953125 98.238281 238.113281 99.394531 C 240.277344 100.550781 242.394531 101.785156 244.46875 103.097656 C 246.542969 104.410156 248.5625 105.796875 250.53125 107.257812 C 252.503906 108.71875 254.417969 110.25 256.273438 111.851562 C 258.132812 113.453125 259.929688 115.121094 261.664062 116.855469 C 263.984375 119.164062 266.183594 121.582031 268.265625 124.109375 C 270.347656 126.632812 272.300781 129.257812 274.121094 131.976562 C 275.941406 134.695312 277.625 137.496094 279.171875 140.382812 C 280.714844 143.269531 282.113281 146.222656 283.367188 149.246094 C 284.621094 152.273438 285.71875 155.351562 286.667969 158.484375 C 287.617188 161.617188 288.40625 164.789062 289.039062 168 C 289.675781 171.210938 290.148438 174.445312 290.460938 177.703125 C 290.777344 180.960938 290.929688 184.226562 290.917969 187.5 C 290.917969 191.597656 290.667969 195.683594 290.171875 199.753906 C 290.15625 199.871094 290.105469 199.964844 290.019531 200.042969 C 289.929688 200.121094 289.828125 200.160156 289.714844 200.160156 Z M 289.714844 200.160156 " fill-opacity="1" fill-rule="nonzero"/><path fill="#0097b2" d="M 88.84375 204.6875 L 293.199219 204.6875 L 293.199219 205.617188 L 88.84375 205.617188 Z M 88.84375 204.6875 " fill-opacity="1" fill-rule="nonzero"/><path fill="#0097b2" d="M 108.714844 250.382812 L 273.332031 250.382812 L 273.332031 251.3125 L 108.714844 251.3125 Z M 108.714844 250.382812 " fill-opacity="1" fill-rule="nonzero"/><g clip-path="url(#7e54374886)"><path fill="#0097b2" d="M 191.023438 291.722656 C 133.550781 291.722656 86.796875 244.96875 86.796875 187.5 C 86.796875 130.03125 133.550781 83.269531 191.023438 83.269531 C 248.496094 83.269531 295.253906 130.027344 295.253906 187.5 C 295.253906 244.972656 248.492188 291.722656 191.023438 291.722656 Z M 191.023438 84.199219 C 134.0625 84.199219 87.726562 130.539062 87.726562 187.5 C 87.726562 244.460938 134.0625 290.792969 191.023438 290.792969 C 247.984375 290.792969 294.320312 244.457031 294.320312 187.5 C 294.320312 130.542969 247.980469 84.199219 191.023438 84.199219 Z M 191.023438 84.199219 " fill-opacity="1" fill-rule="nonzero"/></g><g fill="#575756" fill-opacity="1"><g transform="translate(103.161413, 229.358745)"><g><path d="M 7.78125 -15.96875 C 9.59375 -15.96875 11.015625 -15.550781 12.046875 -14.71875 C 13.078125 -13.882812 13.59375 -12.738281 13.59375 -11.28125 C 13.59375 -10.476562 13.375 -9.78125 12.9375 -9.1875 C 12.507812 -8.59375 11.878906 -8.113281 11.046875 -7.75 C 11.992188 -7.46875 12.671875 -7.003906 13.078125 -6.359375 C 13.492188 -5.710938 13.703125 -4.910156 13.703125 -3.953125 L 13.703125 -3.140625 C 13.703125 -2.796875 13.769531 -2.523438 13.90625 -2.328125 C 14.050781 -2.140625 14.285156 -2.023438 14.609375 -1.984375 L 15 -1.921875 L 15 0 L 13.34375 0 C 12.300781 0 11.566406 -0.28125 11.140625 -0.84375 C 10.710938 -1.40625 10.5 -2.132812 10.5 -3.03125 L 10.5 -3.9375 C 10.5 -4.707031 10.289062 -5.3125 9.875 -5.75 C 9.46875 -6.195312 8.890625 -6.429688 8.140625 -6.453125 L 5.515625 -6.453125 L 5.515625 -2.25 L 7.21875 -1.921875 L 7.21875 0 L 0.609375 0 L 0.609375 -1.921875 L 2.3125 -2.25 L 2.3125 -13.703125 L 0.609375 -14.03125 L 0.609375 -15.96875 Z M 5.515625 -8.921875 L 7.734375 -8.921875 C 8.617188 -8.921875 9.285156 -9.109375 9.734375 -9.484375 C 10.179688 -9.867188 10.40625 -10.421875 10.40625 -11.140625 C 10.40625 -11.859375 10.179688 -12.429688 9.734375 -12.859375 C 9.296875 -13.285156 8.644531 -13.5 7.78125 -13.5 L 5.515625 -13.5 Z M 5.515625 -8.921875 "/></g></g></g><g fill="#575756" fill-opacity="1"><g transform="translate(120.834974, 229.358745)"><g><path d="M 10.921875 -7.015625 L 5.515625 -7.015625 L 5.515625 -2.453125 L 10.671875 -2.453125 L 10.8125 -4.359375 L 13.25 -4.359375 L 13.25 0 L 0.609375 0 L 0.609375 -1.921875 L 2.3125 -2.25 L 2.3125 -13.703125 L 0.609375 -14.03125 L 0.609375 -15.96875 L 13.21875 -15.96875 L 13.21875 -11.59375 L 10.765625 -11.59375 L 10.625 -13.5 L 5.515625 -13.5 L 5.515625 -9.484375 L 10.921875 -9.484375 Z M 10.921875 -7.015625 "/></g></g></g><g fill="#575756" fill-opacity="1"><g transform="translate(137.412763, 229.358745)"><g><path d="M 12.734375 -10.859375 L 10.34375 -10.859375 L 9.921875 -13.0625 C 9.640625 -13.238281 9.234375 -13.390625 8.703125 -13.515625 C 8.171875 -13.648438 7.601562 -13.71875 7 -13.71875 C 6.125 -13.71875 5.445312 -13.53125 4.96875 -13.15625 C 4.488281 -12.789062 4.25 -12.316406 4.25 -11.734375 C 4.25 -11.191406 4.5 -10.742188 5 -10.390625 C 5.5 -10.046875 6.363281 -9.679688 7.59375 -9.296875 C 9.351562 -8.804688 10.6875 -8.160156 11.59375 -7.359375 C 12.507812 -6.554688 12.96875 -5.5 12.96875 -4.1875 C 12.96875 -2.820312 12.425781 -1.742188 11.34375 -0.953125 C 10.257812 -0.160156 8.835938 0.234375 7.078125 0.234375 C 5.804688 0.234375 4.660156 0.0351562 3.640625 -0.359375 C 2.617188 -0.765625 1.769531 -1.328125 1.09375 -2.046875 L 1.09375 -5.375 L 3.578125 -5.375 L 3.90625 -3.109375 C 4.226562 -2.835938 4.664062 -2.613281 5.21875 -2.4375 C 5.769531 -2.269531 6.390625 -2.1875 7.078125 -2.1875 C 7.953125 -2.1875 8.613281 -2.363281 9.0625 -2.71875 C 9.519531 -3.082031 9.75 -3.566406 9.75 -4.171875 C 9.75 -4.785156 9.53125 -5.273438 9.09375 -5.640625 C 8.664062 -6.015625 7.90625 -6.367188 6.8125 -6.703125 C 4.925781 -7.242188 3.492188 -7.890625 2.515625 -8.640625 C 1.546875 -9.398438 1.0625 -10.429688 1.0625 -11.734375 C 1.0625 -13.035156 1.609375 -14.097656 2.703125 -14.921875 C 3.804688 -15.742188 5.1875 -16.164062 6.84375 -16.1875 C 8.070312 -16.1875 9.1875 -16 10.1875 -15.625 C 11.195312 -15.25 12.046875 -14.75 12.734375 -14.125 Z M 12.734375 -10.859375 "/></g></g></g><g fill="#575756" fill-opacity="1"><g transform="translate(153.267341, 229.358745)"><g><path d="M 14.671875 -15.96875 L 14.671875 -11.703125 L 12.21875 -11.703125 L 12.078125 -13.5 L 9.140625 -13.5 L 9.140625 -2.25 L 10.859375 -1.921875 L 10.859375 0 L 4.234375 0 L 4.234375 -1.921875 L 5.9375 -2.25 L 5.9375 -13.5 L 3.015625 -13.5 L 2.890625 -11.703125 L 0.4375 -11.703125 L 0.4375 -15.96875 Z M 14.671875 -15.96875 "/></g></g></g><g fill="#575756" fill-opacity="1"><g transform="translate(170.601219, 229.358745)"><g><path d="M 0.453125 -1.921875 L 1.59375 -2.078125 L 6.453125 -15.96875 L 9.71875 -15.96875 L 14.546875 -2.078125 L 15.6875 -1.921875 L 15.6875 0 L 10.25 0 L 10.25 -1.921875 L 11.359375 -2.109375 L 10.65625 -4.3125 L 5.484375 -4.3125 L 4.78125 -2.109375 L 5.890625 -1.921875 L 5.890625 0 L 0.453125 0 Z M 6.234375 -6.671875 L 9.90625 -6.671875 L 8.109375 -12.296875 L 8.03125 -12.296875 Z M 6.234375 -6.671875 "/></g></g></g><g fill="#575756" fill-opacity="1"><g transform="translate(188.965123, 229.358745)"><g><path d="M 7.03125 -15.96875 L 7.03125 -14.03125 L 5.328125 -13.703125 L 5.328125 -5.375 C 5.328125 -4.320312 5.609375 -3.53125 6.171875 -3 C 6.742188 -2.476562 7.519531 -2.21875 8.5 -2.21875 C 9.507812 -2.21875 10.296875 -2.476562 10.859375 -3 C 11.429688 -3.519531 11.71875 -4.3125 11.71875 -5.375 L 11.71875 -13.703125 L 10.015625 -14.03125 L 10.015625 -15.96875 L 16.625 -15.96875 L 16.625 -14.03125 L 14.921875 -13.703125 L 14.921875 -5.375 C 14.921875 -3.582031 14.328125 -2.195312 13.140625 -1.21875 C 11.960938 -0.25 10.414062 0.234375 8.5 0.234375 C 6.59375 0.234375 5.050781 -0.25 3.875 -1.21875 C 2.707031 -2.195312 2.125 -3.582031 2.125 -5.375 L 2.125 -13.703125 L 0.421875 -14.03125 L 0.421875 -15.96875 Z M 7.03125 -15.96875 "/></g></g></g><g fill="#575756" fill-opacity="1"><g transform="translate(208.161808, 229.358745)"><g><path d="M 7.78125 -15.96875 C 9.59375 -15.96875 11.015625 -15.550781 12.046875 -14.71875 C 13.078125 -13.882812 13.59375 -12.738281 13.59375 -11.28125 C 13.59375 -10.476562 13.375 -9.78125 12.9375 -9.1875 C 12.507812 -8.59375 11.878906 -8.113281 11.046875 -7.75 C 11.992188 -7.46875 12.671875 -7.003906 13.078125 -6.359375 C 13.492188 -5.710938 13.703125 -4.910156 13.703125 -3.953125 L 13.703125 -3.140625 C 13.703125 -2.796875 13.769531 -2.523438 13.90625 -2.328125 C 14.050781 -2.140625 14.285156 -2.023438 14.609375 -1.984375 L 15 -1.921875 L 15 0 L 13.34375 0 C 12.300781 0 11.566406 -0.28125 11.140625 -0.84375 C 10.710938 -1.40625 10.5 -2.132812 10.5 -3.03125 L 10.5 -3.9375 C 10.5 -4.707031 10.289062 -5.3125 9.875 -5.75 C 9.46875 -6.195312 8.890625 -6.429688 8.140625 -6.453125 L 5.515625 -6.453125 L 5.515625 -2.25 L 7.21875 -1.921875 L 7.21875 0 L 0.609375 0 L 0.609375 -1.921875 L 2.3125 -2.25 L 2.3125 -13.703125 L 0.609375 -14.03125 L 0.609375 -15.96875 Z M 5.515625 -8.921875 L 7.734375 -8.921875 C 8.617188 -8.921875 9.285156 -9.109375 9.734375 -9.484375 C 10.179688 -9.867188 10.40625 -10.421875 10.40625 -11.140625 C 10.40625 -11.859375 10.179688 -12.429688 9.734375 -12.859375 C 9.296875 -13.285156 8.644531 -13.5 7.78125 -13.5 L 5.515625 -13.5 Z M 5.515625 -8.921875 "/></g></g></g><g fill="#575756" fill-opacity="1"><g transform="translate(225.835364, 229.358745)"><g><path d="M 0.453125 -1.921875 L 1.59375 -2.078125 L 6.453125 -15.96875 L 9.71875 -15.96875 L 14.546875 -2.078125 L 15.6875 -1.921875 L 15.6875 0 L 10.25 0 L 10.25 -1.921875 L 11.359375 -2.109375 L 10.65625 -4.3125 L 5.484375 -4.3125 L 4.78125 -2.109375 L 5.890625 -1.921875 L 5.890625 0 L 0.453125 0 Z M 6.234375 -6.671875 L 9.90625 -6.671875 L 8.109375 -12.296875 L 8.03125 -12.296875 Z M 6.234375 -6.671875 "/></g></g></g><g fill="#575756" fill-opacity="1"><g transform="translate(244.199262, 229.358745)"><g><path d="M 16.921875 -15.96875 L 16.921875 -14.03125 L 15.21875 -13.703125 L 15.21875 0 L 12.03125 0 L 5.578125 -10.75 L 5.515625 -10.734375 L 5.515625 -2.25 L 7.21875 -1.921875 L 7.21875 0 L 0.609375 0 L 0.609375 -1.921875 L 2.3125 -2.25 L 2.3125 -13.703125 L 0.609375 -14.03125 L 0.609375 -15.96875 L 5.515625 -15.96875 L 11.96875 -5.21875 L 12.03125 -5.234375 L 12.03125 -13.703125 L 10.3125 -14.03125 L 10.3125 -15.96875 Z M 16.921875 -15.96875 "/></g></g></g><g fill="#575756" fill-opacity="1"><g transform="translate(263.779461, 229.358745)"><g><path d="M 14.671875 -15.96875 L 14.671875 -11.703125 L 12.21875 -11.703125 L 12.078125 -13.5 L 9.140625 -13.5 L 9.140625 -2.25 L 10.859375 -1.921875 L 10.859375 0 L 4.234375 0 L 4.234375 -1.921875 L 5.9375 -2.25 L 5.9375 -13.5 L 3.015625 -13.5 L 2.890625 -11.703125 L 0.4375 -11.703125 L 0.4375 -15.96875 Z M 14.671875 -15.96875 "/></g></g></g><g fill="#575756" fill-opacity="1"><g transform="translate(109.145375, 200.832743)"><g><path d="M -11.46875 -8.59375 L -8.671875 -8.875 L -8.5 -7.25 L -9.65625 -7.046875 L -9.453125 -5.109375 L -2.078125 -5.859375 L -1.984375 -7.015625 L -0.71875 -7.140625 L -0.28125 -2.78125 L -1.546875 -2.65625 L -1.875 -3.765625 L -9.25 -3.015625 L -9.0625 -1.078125 L -7.890625 -1.125 L -7.734375 0.46875 L -10.53125 0.75 Z M -11.46875 -8.59375 "/></g></g></g><g fill="#575756" fill-opacity="1"><g transform="translate(108.082337, 187.33791)"><g><path d="M -1.25 -0.390625 L -1.296875 -1.15625 L -10.1875 -5.03125 L -10.03125 -7.203125 L -0.640625 -9.6875 L -0.484375 -10.421875 L 0.78125 -10.328125 L 0.515625 -6.75 L -0.75 -6.84375 L -0.828125 -7.59375 L -2.296875 -7.234375 L -2.546875 -3.828125 L -1.15625 -3.25 L -0.96875 -3.96875 L 0.296875 -3.875 L 0.015625 -0.296875 Z M -4.078125 -4.4375 L -3.890625 -6.84375 L -7.671875 -5.9375 L -7.671875 -5.90625 Z M -4.078125 -4.4375 "/></g></g></g><g fill="#575756" fill-opacity="1"><g transform="translate(109.540132, 173.179985)"><g><path d="M -4.90625 -9.90625 L -5.296875 -8.375 L -6.765625 -8.4375 C -6.921875 -8.300781 -7.085938 -8.070312 -7.265625 -7.75 C -7.441406 -7.425781 -7.578125 -7.070312 -7.671875 -6.6875 C -7.816406 -6.125 -7.804688 -5.660156 -7.640625 -5.296875 C -7.472656 -4.941406 -7.203125 -4.71875 -6.828125 -4.625 C -6.484375 -4.53125 -6.160156 -4.613281 -5.859375 -4.875 C -5.554688 -5.144531 -5.179688 -5.640625 -4.734375 -6.359375 C -4.140625 -7.410156 -3.507812 -8.160156 -2.84375 -8.609375 C -2.1875 -9.066406 -1.441406 -9.191406 -0.609375 -8.984375 C 0.273438 -8.765625 0.882812 -8.242188 1.21875 -7.421875 C 1.550781 -6.609375 1.578125 -5.632812 1.296875 -4.5 C 1.085938 -3.6875 0.769531 -2.984375 0.34375 -2.390625 C -0.0703125 -1.796875 -0.5625 -1.34375 -1.125 -1.03125 L -3.265625 -1.5625 L -2.859375 -3.140625 L -1.359375 -3 C -1.140625 -3.164062 -0.929688 -3.410156 -0.734375 -3.734375 C -0.535156 -4.066406 -0.378906 -4.453125 -0.265625 -4.890625 C -0.128906 -5.441406 -0.140625 -5.894531 -0.296875 -6.25 C -0.453125 -6.601562 -0.722656 -6.828125 -1.109375 -6.921875 C -1.503906 -7.015625 -1.851562 -6.953125 -2.15625 -6.734375 C -2.457031 -6.515625 -2.800781 -6.082031 -3.1875 -5.4375 C -3.84375 -4.3125 -4.488281 -3.5 -5.125 -3 C -5.769531 -2.507812 -6.507812 -2.367188 -7.34375 -2.578125 C -8.175781 -2.785156 -8.765625 -3.300781 -9.109375 -4.125 C -9.460938 -4.957031 -9.515625 -5.90625 -9.265625 -6.96875 C -9.066406 -7.757812 -8.769531 -8.445312 -8.375 -9.03125 C -7.976562 -9.625 -7.519531 -10.085938 -7 -10.421875 Z M -4.90625 -9.90625 "/></g></g></g><g fill="#575756" fill-opacity="1"><g transform="translate(112.856355, 161.020271)"><g><path d="M -5.796875 -13.09375 L -3.21875 -11.96875 L -3.875 -10.484375 L -4.96875 -10.875 L -5.75 -9.09375 L 1.046875 -6.125 L 1.71875 -7.078125 L 2.875 -6.578125 L 1.125 -2.5625 L -0.03125 -3.0625 L 0.203125 -4.1875 L -6.59375 -7.15625 L -7.359375 -5.375 L -6.328125 -4.84375 L -6.96875 -3.359375 L -9.546875 -4.484375 Z M -5.796875 -13.09375 "/></g></g></g><g fill="#575756" fill-opacity="1"><g transform="translate(118.57721, 148.721388)"><g><path d="M 0.078125 -8.578125 L -1.875 -5.59375 L 0.640625 -3.9375 L 2.5 -6.78125 L 1.515625 -7.546875 L 2.390625 -8.890625 L 4.796875 -7.3125 L 0.21875 -0.34375 L -0.84375 -1.03125 L -0.390625 -2.09375 L -6.71875 -6.234375 L -7.53125 -5.421875 L -8.609375 -6.125 L -7.984375 -7.0625 L -4.046875 -13.09375 L -1.625 -11.515625 L -2.515625 -10.15625 L -3.609375 -10.75 L -5.453125 -7.921875 L -3.234375 -6.484375 L -1.28125 -9.46875 Z M 0.078125 -8.578125 "/></g></g></g><g fill="#575756" fill-opacity="1"><g transform="translate(126.188387, 137.910743)"><g/></g></g><g fill="#575756" fill-opacity="1"><g transform="translate(131.021644, 132.328495)"><g><path d="M 4.09375 -10.546875 C 5.113281 -9.390625 5.628906 -8.140625 5.640625 -6.796875 C 5.648438 -5.453125 5.117188 -4.304688 4.046875 -3.359375 C 2.972656 -2.421875 1.769531 -2.039062 0.4375 -2.21875 C -0.882812 -2.394531 -2.054688 -3.0625 -3.078125 -4.21875 L -3.171875 -4.328125 C -4.191406 -5.484375 -4.707031 -6.726562 -4.71875 -8.0625 C -4.738281 -9.40625 -4.21875 -10.546875 -3.15625 -11.484375 C -2.070312 -12.429688 -0.863281 -12.816406 0.46875 -12.640625 C 1.800781 -12.472656 2.976562 -11.8125 4 -10.65625 Z M 2.40625 -9.265625 C 1.6875 -10.085938 0.929688 -10.601562 0.140625 -10.8125 C -0.648438 -11.03125 -1.382812 -10.84375 -2.0625 -10.25 C -2.726562 -9.65625 -3 -8.960938 -2.875 -8.171875 C -2.757812 -7.378906 -2.335938 -6.566406 -1.609375 -5.734375 L -1.5 -5.609375 C -0.769531 -4.773438 -0.015625 -4.25 0.765625 -4.03125 C 1.554688 -3.8125 2.285156 -3.992188 2.953125 -4.578125 C 3.617188 -5.171875 3.894531 -5.867188 3.78125 -6.671875 C 3.664062 -7.484375 3.242188 -8.304688 2.515625 -9.140625 Z M 2.40625 -9.265625 "/></g></g></g><g fill="#575756" fill-opacity="1"><g transform="translate(141.804598, 123.290873)"><g><path d="M -0.328125 -1.296875 L 0.515625 -2.078125 L -3.453125 -8.515625 L -4.53125 -8.09375 L -5.203125 -9.1875 L 1.9375 -13.59375 L 3.453125 -11.140625 L 2.0625 -10.28125 L 1.328125 -11.296875 L -1.59375 -9.484375 L -0.0625 -7.03125 L 3.078125 -8.984375 L 3.9375 -7.578125 L 0.796875 -5.625 L 2.3125 -3.171875 L 3.375 -3.578125 L 4.046875 -2.5 L 0.34375 -0.21875 Z M -0.328125 -1.296875 "/></g></g></g><g fill="#575756" fill-opacity="1"><g transform="translate(153.01196, 116.86102)"><g/></g></g><g fill="#575756" fill-opacity="1"><g transform="translate(159.766339, 113.849177)"><g><path d="M 6.25 -12.890625 L 7.0625 -10.1875 L 5.5 -9.71875 L 5.09375 -10.828125 L 3.21875 -10.265625 L 5.359375 -3.15625 L 6.515625 -3.28125 L 6.875 -2.0625 L 2.671875 -0.796875 L 2.3125 -2.015625 L 3.328125 -2.546875 L 1.1875 -9.65625 L -0.65625 -9.09375 L -0.390625 -7.953125 L -1.9375 -7.484375 L -2.75 -10.1875 Z M 6.25 -12.890625 "/></g></g></g><g fill="#575756" fill-opacity="1"><g transform="translate(172.782813, 110.209843)"><g><path d="M -0.609375 -9.25 L -0.75 -10.53125 L 3.578125 -11 L 3.71875 -9.71875 L 2.640625 -9.40625 L 2.96875 -6.390625 L 7.234375 -6.859375 L 6.90625 -9.875 L 5.75 -9.953125 L 5.609375 -11.234375 L 6.734375 -11.359375 L 8.828125 -11.578125 L 9.953125 -11.703125 L 10.09375 -10.421875 L 9 -10.09375 L 9.828125 -2.5625 L 10.96875 -2.484375 L 11.109375 -1.21875 L 6.765625 -0.75 L 6.625 -2.015625 L 7.734375 -2.34375 L 7.40625 -5.21875 L 3.140625 -4.75 L 3.46875 -1.875 L 4.59375 -1.78125 L 4.734375 -0.515625 L 0.40625 -0.046875 L 0.265625 -1.3125 L 1.359375 -1.640625 L 0.53125 -9.171875 Z M -0.609375 -9.25 "/></g></g></g><g fill="#575756" fill-opacity="1"><g transform="translate(187.869234, 108.962073)"><g><path d="M 7.515625 -4.125 L 3.9375 -4.375 L 3.734375 -1.375 L 7.140625 -1.140625 L 7.328125 -2.390625 L 8.9375 -2.28125 L 8.734375 0.59375 L 0.40625 0.03125 L 0.5 -1.234375 L 1.640625 -1.375 L 2.15625 -8.921875 L 1.046875 -9.21875 L 1.125 -10.484375 L 2.25 -10.40625 L 9.4375 -9.921875 L 9.25 -7.046875 L 7.625 -7.15625 L 7.609375 -8.40625 L 4.234375 -8.640625 L 4.046875 -6 L 7.625 -5.75 Z M 7.515625 -4.125 "/></g></g></g><g fill="#575756" fill-opacity="1"><g transform="translate(201.024476, 110.301757)"><g/></g></g><g fill="#575756" fill-opacity="1"><g transform="translate(208.271349, 111.818152)"><g><path d="M 10.828125 -3.671875 L 9.328125 -4.1875 L 9.578125 -5.578125 C 9.453125 -5.847656 9.257812 -6.085938 9 -6.296875 C 8.738281 -6.515625 8.398438 -6.695312 7.984375 -6.84375 C 7.117188 -7.144531 6.34375 -7.054688 5.65625 -6.578125 C 4.976562 -6.109375 4.460938 -5.363281 4.109375 -4.34375 L 4 -4 C 3.644531 -2.988281 3.59375 -2.085938 3.84375 -1.296875 C 4.101562 -0.503906 4.660156 0.0351562 5.515625 0.328125 C 5.898438 0.460938 6.273438 0.53125 6.640625 0.53125 C 7.003906 0.53125 7.304688 0.460938 7.546875 0.328125 L 8.21875 -0.9375 L 9.71875 -0.421875 L 9.046875 1.546875 C 8.472656 1.878906 7.828125 2.070312 7.109375 2.125 C 6.390625 2.1875 5.644531 2.085938 4.875 1.828125 C 3.53125 1.367188 2.59375 0.535156 2.0625 -0.671875 C 1.53125 -1.890625 1.515625 -3.226562 2.015625 -4.6875 L 2.125 -5.015625 C 2.625 -6.460938 3.453125 -7.503906 4.609375 -8.140625 C 5.773438 -8.785156 7.035156 -8.878906 8.390625 -8.421875 C 9.160156 -8.160156 9.8125 -7.78125 10.34375 -7.28125 C 10.875 -6.78125 11.265625 -6.238281 11.515625 -5.65625 Z M 10.828125 -3.671875 "/></g></g></g><g fill="#575756" fill-opacity="1"><g transform="translate(220.652724, 116.349574)"><g><path d="M 0.875 -0.96875 L 1.59375 -0.703125 L 8.8125 -7.1875 L 10.71875 -6.125 L 9.078125 3.4375 L 9.671875 3.890625 L 9.0625 5 L 5.921875 3.265625 L 6.53125 2.15625 L 7.234375 2.40625 L 7.53125 0.90625 L 4.546875 -0.734375 L 3.4375 0.3125 L 4.015625 0.765625 L 3.40625 1.875 L 0.265625 0.140625 Z M 5.734375 -1.859375 L 7.84375 -0.703125 L 8.59375 -4.515625 L 8.578125 -4.53125 Z M 5.734375 -1.859375 "/></g></g></g><g fill="#575756" fill-opacity="1"><g transform="translate(232.926678, 123.505359)"><g><path d="M 10.640625 -4.953125 C 11.566406 -4.191406 12.117188 -3.382812 12.296875 -2.53125 C 12.484375 -1.675781 12.273438 -0.878906 11.671875 -0.140625 C 11.335938 0.273438 10.9375 0.539062 10.46875 0.65625 C 10 0.78125 9.476562 0.765625 8.90625 0.609375 C 9.257812 1.148438 9.410156 1.671875 9.359375 2.171875 C 9.304688 2.679688 9.078125 3.179688 8.671875 3.671875 L 8.34375 4.09375 C 8.195312 4.269531 8.117188 4.4375 8.109375 4.59375 C 8.097656 4.75 8.164062 4.90625 8.3125 5.0625 L 8.515625 5.234375 L 7.703125 6.234375 L 6.84375 5.546875 C 6.3125 5.117188 6.050781 4.671875 6.0625 4.203125 C 6.082031 3.742188 6.28125 3.285156 6.65625 2.828125 L 7.03125 2.359375 C 7.34375 1.960938 7.488281 1.5625 7.46875 1.15625 C 7.445312 0.757812 7.242188 0.398438 6.859375 0.078125 L 5.515625 -1.015625 L 3.765625 1.140625 L 4.5 2.015625 L 3.703125 3 L 0.3125 0.25 L 1.109375 -0.734375 L 2.125 -0.1875 L 6.890625 -6.0625 L 6.140625 -6.953125 L 6.953125 -7.9375 L 7.828125 -7.21875 Z M 6.53125 -2.28125 L 7.671875 -1.359375 C 8.128906 -0.992188 8.550781 -0.8125 8.9375 -0.8125 C 9.332031 -0.820312 9.679688 -1.015625 9.984375 -1.390625 C 10.273438 -1.753906 10.394531 -2.132812 10.34375 -2.53125 C 10.289062 -2.9375 10.046875 -3.320312 9.609375 -3.6875 L 8.4375 -4.625 Z M 6.53125 -2.28125 "/></g></g></g><g fill="#575756" fill-opacity="1"><g transform="translate(243.427086, 132.591758)"><g><path d="M 7.078125 -6 L 8.015625 -6.875 L 10.984375 -3.65625 L 10.046875 -2.78125 L 9.109375 -3.46875 L 3.5625 1.671875 L 4.171875 2.640625 L 3.234375 3.5 L 0.265625 0.28125 L 1.203125 -0.578125 L 2.125 0.125 L 7.671875 -5.015625 Z M 7.078125 -6 "/></g></g></g><g fill="#575756" fill-opacity="1"><g transform="translate(249.380349, 139.18606)"><g><path d="M 11.578125 -1.796875 C 12.285156 -0.773438 12.632812 0.15625 12.625 1 C 12.613281 1.851562 12.210938 2.550781 11.421875 3.09375 C 11.023438 3.375 10.59375 3.519531 10.125 3.53125 C 9.664062 3.539062 9.21875 3.390625 8.78125 3.078125 C 9.03125 3.671875 9.0625 4.222656 8.875 4.734375 C 8.6875 5.242188 8.347656 5.671875 7.859375 6.015625 C 7.035156 6.578125 6.222656 6.734375 5.421875 6.484375 C 4.617188 6.234375 3.867188 5.609375 3.171875 4.609375 L 0.234375 0.328125 L 1.28125 -0.390625 L 2.09375 0.421875 L 8.328125 -3.875 L 7.859375 -4.9375 L 8.921875 -5.65625 L 9.5625 -4.71875 Z M 5.890625 0.359375 L 3.40625 2.078125 L 4.515625 3.6875 C 4.828125 4.132812 5.164062 4.410156 5.53125 4.515625 C 5.90625 4.617188 6.285156 4.539062 6.671875 4.28125 C 7.109375 3.976562 7.363281 3.648438 7.4375 3.296875 C 7.507812 2.941406 7.394531 2.539062 7.09375 2.09375 Z M 7.109375 -0.484375 L 7.96875 0.765625 C 8.300781 1.234375 8.644531 1.523438 9 1.640625 C 9.363281 1.765625 9.722656 1.703125 10.078125 1.453125 C 10.484375 1.171875 10.691406 0.835938 10.703125 0.453125 C 10.722656 0.0664062 10.5625 -0.375 10.21875 -0.875 L 9.390625 -2.0625 Z M 7.109375 -0.484375 "/></g></g></g><g fill="#575756" fill-opacity="1"><g transform="translate(256.730939, 150.382432)"><g><path d="M 11.703125 0.1875 C 12.222656 1.3125 12.410156 2.285156 12.265625 3.109375 C 12.117188 3.941406 11.613281 4.5625 10.75 4.96875 C 10.300781 5.175781 9.847656 5.242188 9.390625 5.171875 C 8.929688 5.109375 8.507812 4.882812 8.125 4.5 C 8.28125 5.144531 8.222656 5.703125 7.953125 6.171875 C 7.691406 6.648438 7.289062 7.015625 6.75 7.265625 C 5.84375 7.679688 5.007812 7.695312 4.25 7.3125 C 3.5 6.925781 2.867188 6.179688 2.359375 5.078125 L 0.171875 0.375 L 1.3125 -0.15625 L 1.984375 0.765625 L 8.84375 -2.421875 L 8.578125 -3.515625 L 9.734375 -4.0625 L 10.203125 -3.046875 Z M 5.75 1.34375 L 3 2.609375 L 3.828125 4.390625 C 4.054688 4.890625 4.34375 5.222656 4.6875 5.390625 C 5.039062 5.554688 5.429688 5.546875 5.859375 5.359375 C 6.328125 5.140625 6.628906 4.859375 6.765625 4.515625 C 6.910156 4.171875 6.867188 3.753906 6.640625 3.265625 Z M 7.09375 0.71875 L 7.734375 2.09375 C 7.972656 2.613281 8.257812 2.960938 8.59375 3.140625 C 8.925781 3.316406 9.296875 3.316406 9.703125 3.140625 C 10.140625 2.929688 10.398438 2.632812 10.484375 2.25 C 10.566406 1.875 10.476562 1.414062 10.21875 0.875 L 9.609375 -0.453125 Z M 7.09375 0.71875 "/></g></g></g><g fill="#575756" fill-opacity="1"><g transform="translate(262.077144, 162.673412)"><g><path d="M 6.390625 5.75 L 5.4375 2.296875 L 2.515625 3.09375 L 3.421875 6.375 L 4.65625 6.140625 L 5.078125 7.6875 L 2.296875 8.4375 L 0.109375 0.390625 L 1.328125 0.0625 L 1.84375 1.09375 L 9.140625 -0.890625 L 9.046875 -2.046875 L 10.28125 -2.390625 L 10.578125 -1.296875 L 12.46875 5.640625 L 9.6875 6.40625 L 9.265625 4.84375 L 10.4375 4.421875 L 9.546875 1.171875 L 7 1.859375 L 7.953125 5.3125 Z M 6.390625 5.75 "/></g></g></g><g fill="#575756" fill-opacity="1"><g transform="translate(265.265833, 175.32735)"><g><path d="M 1.296875 0.171875 L 1.46875 0.921875 L 10.890625 3.25 L 11.109375 5.40625 L 2.28125 9.4375 L 2.234375 10.1875 L 0.96875 10.3125 L 0.640625 6.734375 L 1.90625 6.609375 L 2.09375 7.34375 L 3.484375 6.734375 L 3.171875 3.34375 L 1.6875 3.015625 L 1.625 3.75 L 0.359375 3.875 L 0.03125 0.296875 Z M 4.78125 3.703125 L 5 6.09375 L 8.578125 4.546875 L 8.578125 4.53125 Z M 4.78125 3.703125 "/></g></g></g><g fill="#575756" fill-opacity="1"><g transform="translate(266.30976, 189.466249)"><g><path d="M 9.484375 12.078125 L 8.21875 11.96875 L 8.109375 10.8125 L -0.90625 10 L -0.71875 7.90625 L 6.734375 4.3125 L 6.734375 4.265625 L 1.15625 3.765625 L 0.828125 4.859375 L -0.4375 4.75 L -0.03125 0.40625 L 1.234375 0.515625 L 1.34375 1.671875 L 8.875 2.34375 L 9.203125 1.25 L 10.46875 1.359375 L 10.359375 2.484375 L 10.171875 4.578125 L 2.71875 8.1875 L 2.71875 8.21875 L 8.296875 8.71875 L 8.625 7.625 L 9.890625 7.734375 L 9.59375 10.953125 Z M 9.484375 12.078125 "/></g></g></g><g fill="#575756" fill-opacity="1"><g transform="translate(151.640039, 263.336683)"><g><path d="M 8.296875 -1.703125 L 7.265625 -2.21875 L 7.5625 -3.21875 C 7.5 -3.425781 7.378906 -3.617188 7.203125 -3.796875 C 7.035156 -3.984375 6.804688 -4.144531 6.515625 -4.28125 C 5.910156 -4.582031 5.332031 -4.59375 4.78125 -4.3125 C 4.238281 -4.039062 3.789062 -3.546875 3.4375 -2.828125 L 3.328125 -2.578125 C 2.972656 -1.859375 2.847656 -1.195312 2.953125 -0.59375 C 3.066406 0.0078125 3.421875 0.457031 4.015625 0.75 C 4.296875 0.882812 4.566406 0.96875 4.828125 1 C 5.097656 1.039062 5.332031 1.015625 5.53125 0.921875 L 6.140625 0.078125 L 7.171875 0.59375 L 6.484375 1.984375 C 6.046875 2.171875 5.5625 2.25 5.03125 2.21875 C 4.5 2.195312 3.960938 2.054688 3.421875 1.796875 C 2.472656 1.328125 1.859375 0.625 1.578125 -0.3125 C 1.296875 -1.257812 1.410156 -2.242188 1.921875 -3.265625 L 2.03125 -3.515625 C 2.53125 -4.523438 3.238281 -5.210938 4.15625 -5.578125 C 5.082031 -5.941406 6.019531 -5.890625 6.96875 -5.421875 C 7.507812 -5.160156 7.945312 -4.820312 8.28125 -4.40625 C 8.625 -3.988281 8.859375 -3.550781 8.984375 -3.09375 Z M 8.296875 -1.703125 "/></g></g></g><g fill="#575756" fill-opacity="1"><g transform="translate(161.518147, 267.922391)"><g><path d="M 0.5 -0.828125 L 1.046875 -0.71875 L 5.46875 -6.4375 L 7 -5.9375 L 7.078125 1.265625 L 7.59375 1.53125 L 7.296875 2.421875 L 4.765625 1.578125 L 5.0625 0.6875 L 5.609375 0.765625 L 5.609375 -0.359375 L 3.203125 -1.15625 L 2.546875 -0.25 L 3.046875 0.015625 L 2.75 0.90625 L 0.203125 0.0625 Z M 3.9375 -2.125 L 5.625 -1.578125 L 5.65625 -4.453125 L 5.625 -4.46875 Z M 3.9375 -2.125 "/></g></g></g><g fill="#575756" fill-opacity="1"><g transform="translate(172.678382, 271.327716)"><g><path d="M 8.484375 -6.40625 L 8.109375 -4.34375 L 6.9375 -4.5625 L 7.03125 -5.421875 L 5.609375 -5.6875 L 4.609375 -0.265625 L 5.390625 0.046875 L 5.21875 0.96875 L 2.046875 0.375 L 2.21875 -0.546875 L 3.0625 -0.546875 L 4.0625 -5.96875 L 2.65625 -6.234375 L 2.4375 -5.390625 L 1.265625 -5.59375 L 1.640625 -7.65625 Z M 8.484375 -6.40625 "/></g></g></g><g fill="#575756" fill-opacity="1"><g transform="translate(183.679457, 273.092002)"><g><path d="M 5.515625 -3.171875 L 2.875 -3.296875 L 2.765625 -1.0625 L 5.28125 -0.9375 L 5.40625 -1.875 L 6.578125 -1.8125 L 6.46875 0.328125 L 0.296875 0.015625 L 0.34375 -0.921875 L 1.203125 -1.03125 L 1.484375 -6.640625 L 0.640625 -6.84375 L 0.6875 -7.796875 L 1.53125 -7.75 L 6.859375 -7.484375 L 6.75 -5.34375 L 5.5625 -5.40625 L 5.53125 -6.328125 L 3.03125 -6.453125 L 2.9375 -4.5 L 5.578125 -4.375 Z M 5.515625 -3.171875 "/></g></g></g><g fill="#575756" fill-opacity="1"><g transform="translate(194.45199, 273.402539)"><g><path d="M 3.15625 -8.109375 C 4.039062 -8.179688 4.75 -8.035156 5.28125 -7.671875 C 5.820312 -7.304688 6.125 -6.769531 6.1875 -6.0625 C 6.21875 -5.664062 6.140625 -5.3125 5.953125 -5 C 5.773438 -4.695312 5.488281 -4.441406 5.09375 -4.234375 C 5.5625 -4.128906 5.910156 -3.925781 6.140625 -3.625 C 6.367188 -3.332031 6.503906 -2.957031 6.546875 -2.5 L 6.578125 -2.109375 C 6.585938 -1.929688 6.628906 -1.796875 6.703125 -1.703125 C 6.773438 -1.617188 6.890625 -1.570312 7.046875 -1.5625 L 7.234375 -1.5625 L 7.3125 -0.609375 L 6.515625 -0.546875 C 6.003906 -0.492188 5.632812 -0.597656 5.40625 -0.859375 C 5.175781 -1.117188 5.039062 -1.46875 5 -1.90625 L 4.96875 -2.34375 C 4.9375 -2.71875 4.804688 -3.003906 4.578125 -3.203125 C 4.359375 -3.398438 4.066406 -3.488281 3.703125 -3.46875 L 2.421875 -3.359375 L 2.59375 -1.3125 L 3.453125 -1.234375 L 3.53125 -0.296875 L 0.296875 -0.03125 L 0.21875 -0.96875 L 1.046875 -1.1875 L 0.578125 -6.796875 L -0.265625 -6.875 L -0.34375 -7.828125 L 0.5 -7.890625 Z M 2.328125 -4.578125 L 3.40625 -4.671875 C 3.84375 -4.703125 4.160156 -4.820312 4.359375 -5.03125 C 4.566406 -5.238281 4.65625 -5.515625 4.625 -5.859375 C 4.59375 -6.210938 4.460938 -6.484375 4.234375 -6.671875 C 4.003906 -6.867188 3.675781 -6.945312 3.25 -6.90625 L 2.140625 -6.8125 Z M 2.328125 -4.578125 "/></g></g></g><g fill="#575756" fill-opacity="1"><g transform="translate(205.611735, 272.1642)"><g><path d="M -1.046875 -6.8125 L -1.21875 -7.734375 L 1.953125 -8.359375 L 2.125 -7.4375 L 1.34375 -7.125 L 2.4375 -1.609375 L 3.28125 -1.609375 L 3.46875 -0.6875 L 0.296875 -0.0625 L 0.109375 -0.984375 L 0.90625 -1.296875 L -0.1875 -6.8125 Z M -1.046875 -6.8125 "/></g></g></g><g fill="#575756" fill-opacity="1"><g transform="translate(212.983498, 270.620903)"><g><path d="M 5.46875 -10 L 5.765625 -9.09375 L 5.015625 -8.6875 L 7.09375 -2.296875 L 5.609375 -1.828125 L 0.96875 -5.84375 L 0.953125 -5.828125 L 2.234375 -1.875 L 3.078125 -1.984375 L 3.375 -1.09375 L 0.28125 -0.09375 L -0.015625 -0.984375 L 0.734375 -1.40625 L -1 -6.75 L -1.84375 -6.625 L -2.140625 -7.53125 L -1.34375 -7.796875 L 0.15625 -8.265625 L 4.78125 -4.25 L 4.8125 -4.265625 L 3.53125 -8.21875 L 2.671875 -8.09375 L 2.375 -9 L 4.671875 -9.734375 Z M 5.46875 -10 "/></g></g></g><g fill="#575756" fill-opacity="1"><g transform="translate(224.557365, 266.532769)"><g><path d="M 5.703125 -3.765625 C 5.585938 -3.429688 5.351562 -3.066406 5 -2.671875 C 4.65625 -2.273438 4.148438 -1.914062 3.484375 -1.59375 C 2.523438 -1.125 1.59375 -1.0625 0.6875 -1.40625 C -0.21875 -1.75 -0.914062 -2.425781 -1.40625 -3.4375 L -1.53125 -3.671875 C -2.039062 -4.734375 -2.160156 -5.734375 -1.890625 -6.671875 C -1.617188 -7.617188 -1.015625 -8.328125 -0.078125 -8.796875 C 0.460938 -9.054688 1.003906 -9.207031 1.546875 -9.25 C 2.097656 -9.300781 2.597656 -9.25 3.046875 -9.09375 L 3.734375 -7.703125 L 2.703125 -7.203125 L 2.03125 -8.046875 C 1.851562 -8.085938 1.640625 -8.085938 1.390625 -8.046875 C 1.148438 -8.003906 0.894531 -7.914062 0.625 -7.78125 C 0.0078125 -7.476562 -0.351562 -7.015625 -0.46875 -6.390625 C -0.59375 -5.773438 -0.476562 -5.101562 -0.125 -4.375 L 0 -4.125 C 0.34375 -3.414062 0.785156 -2.929688 1.328125 -2.671875 C 1.878906 -2.410156 2.46875 -2.429688 3.09375 -2.734375 C 3.375 -2.867188 3.59375 -3.003906 3.75 -3.140625 C 3.90625 -3.273438 4.015625 -3.394531 4.078125 -3.5 L 3.484375 -4.703125 L 2.453125 -4.28125 L 1.96875 -5.28125 L 4.390625 -6.46875 Z M 5.703125 -3.765625 "/></g></g></g><g fill="#575756" fill-opacity="1"><g transform="translate(183.404846, 249.008791)"><g><path d="M 0.4375 -3.84375 C 0.4375 -4.601562 0.648438 -5.265625 1.078125 -5.828125 C 1.503906 -6.390625 2.148438 -6.972656 3.015625 -7.578125 C 2.566406 -8.179688 2.234375 -8.726562 2.015625 -9.21875 C 1.796875 -9.71875 1.6875 -10.222656 1.6875 -10.734375 C 1.6875 -11.867188 2.039062 -12.769531 2.75 -13.4375 C 3.457031 -14.113281 4.398438 -14.453125 5.578125 -14.453125 C 6.617188 -14.453125 7.460938 -14.128906 8.109375 -13.484375 C 8.753906 -12.847656 9.078125 -12.070312 9.078125 -11.15625 C 9.078125 -10.519531 8.914062 -9.9375 8.59375 -9.40625 C 8.28125 -8.875 7.847656 -8.410156 7.296875 -8.015625 L 6.375 -7.375 L 9.078125 -4.21875 C 9.316406 -4.613281 9.5 -5.035156 9.625 -5.484375 C 9.757812 -5.941406 9.828125 -6.425781 9.828125 -6.9375 L 11.96875 -6.9375 C 11.96875 -6.039062 11.851562 -5.210938 11.625 -4.453125 C 11.40625 -3.691406 11.066406 -3.019531 10.609375 -2.4375 L 12.640625 -0.046875 L 12.625 0 L 9.453125 0 L 8.703125 -0.875 C 8.148438 -0.507812 7.578125 -0.238281 6.984375 -0.0625 C 6.398438 0.113281 5.769531 0.203125 5.09375 0.203125 C 3.675781 0.203125 2.546875 -0.164062 1.703125 -0.90625 C 0.859375 -1.65625 0.4375 -2.632812 0.4375 -3.84375 Z M 5.25 -1.984375 C 5.59375 -1.984375 5.9375 -2.023438 6.28125 -2.109375 C 6.625 -2.203125 6.957031 -2.335938 7.28125 -2.515625 L 4.34375 -5.921875 L 4.15625 -5.796875 C 3.820312 -5.484375 3.59375 -5.175781 3.46875 -4.875 C 3.351562 -4.582031 3.296875 -4.285156 3.296875 -3.984375 C 3.296875 -3.398438 3.472656 -2.921875 3.828125 -2.546875 C 4.191406 -2.171875 4.664062 -1.984375 5.25 -1.984375 Z M 4.25 -10.765625 C 4.25 -10.484375 4.316406 -10.191406 4.453125 -9.890625 C 4.597656 -9.597656 4.8125 -9.273438 5.09375 -8.921875 L 5.9375 -9.46875 C 6.300781 -9.695312 6.546875 -9.9375 6.671875 -10.1875 C 6.796875 -10.4375 6.859375 -10.707031 6.859375 -11 C 6.859375 -11.320312 6.738281 -11.609375 6.5 -11.859375 C 6.257812 -12.117188 5.945312 -12.25 5.5625 -12.25 C 5.144531 -12.25 4.820312 -12.109375 4.59375 -11.828125 C 4.363281 -11.546875 4.25 -11.191406 4.25 -10.765625 Z M 4.25 -10.765625 "/></g></g></g><g clip-path="url(#3a3e316217)"><path fill="#000000" d="M 189.351562 154.914062 C 189.375 154.734375 189.335938 154.550781 189.246094 154.390625 C 189.246094 154.390625 179.570312 137.511719 176.949219 132.941406 C 176.359375 131.914062 175.054688 131.5625 174.035156 132.15625 C 173.542969 132.441406 173.1875 132.910156 173.039062 133.460938 C 172.890625 134.011719 172.96875 134.597656 173.25 135.09375 C 175.191406 138.480469 180.933594 148.492188 182.539062 151.292969 C 182.539062 151.292969 181.753906 151.746094 181.753906 151.746094 C 181.753906 151.746094 172.488281 135.582031 172.488281 135.582031 C 172.199219 135.078125 171.722656 134.714844 171.167969 134.5625 C 170.609375 134.414062 170.015625 134.492188 169.515625 134.78125 C 169.035156 135.0625 168.683594 135.523438 168.539062 136.0625 C 168.394531 136.605469 168.472656 137.179688 168.75 137.664062 C 168.75 137.664062 178.054688 153.898438 178.054688 153.898438 C 178.054688 153.898438 177.269531 154.355469 177.269531 154.355469 C 177.269531 154.355469 167.984375 138.15625 167.984375 138.15625 C 167.699219 137.660156 167.234375 137.300781 166.6875 137.15625 C 166.140625 137.007812 165.558594 137.085938 165.066406 137.367188 C 164.738281 137.558594 164.578125 137.953125 164.675781 138.324219 C 164.773438 138.691406 165.105469 138.949219 165.488281 138.949219 C 165.105469 138.949219 164.773438 138.691406 164.675781 138.324219 C 164.578125 137.953125 164.738281 137.558594 165.066406 137.367188 C 164.578125 137.652344 164.21875 138.125 164.070312 138.675781 C 163.925781 139.226562 164.003906 139.8125 164.285156 140.304688 C 166.90625 144.875 176.582031 161.753906 176.582031 161.753906 C 176.671875 161.914062 176.8125 162.035156 176.976562 162.109375 L 182.671875 164.558594 C 182.671875 164.558594 203.238281 200.433594 203.238281 200.433594 C 204.898438 203.335938 208.582031 204.328125 211.460938 202.652344 C 211.207031 202.800781 211.039062 202.765625 211.039062 202.765625 C 211.339844 202.765625 211.617188 202.605469 211.765625 202.34375 C 211.917969 202.082031 211.917969 201.757812 211.765625 201.496094 C 211.765625 201.496094 190.542969 164.472656 188.613281 161.105469 C 188.613281 161.105469 189.351562 154.914062 189.351562 154.914062 Z M 173.796875 201.539062 L 187.957031 176.839844 C 188.1875 176.433594 188.050781 175.914062 187.648438 175.683594 C 187.246094 175.449219 186.730469 175.585938 186.496094 175.992188 L 171.878906 201.496094 C 171.726562 201.757812 171.726562 202.082031 171.878906 202.34375 C 172.027344 202.605469 172.304688 202.765625 172.605469 202.765625 C 172.605469 202.765625 172.441406 202.796875 172.199219 202.660156 C 173.566406 203.457031 175.210938 203.675781 176.75 203.257812 C 178.292969 202.84375 179.609375 201.828125 180.40625 200.433594 C 184.273438 193.691406 191.105469 181.769531 191.105469 181.769531 C 191.339844 181.363281 191.199219 180.84375 190.800781 180.609375 C 190.398438 180.378906 189.882812 180.515625 189.652344 180.921875 C 189.652344 180.921875 182.816406 192.84375 178.949219 199.589844 C 178.375 200.589844 177.425781 201.324219 176.316406 201.621094 C 175.480469 201.847656 174.601562 201.816406 173.796875 201.539062 Z M 209.847656 201.539062 C 207.925781 202.199219 205.746094 201.425781 204.695312 199.589844 C 198.625 189 183.988281 163.46875 183.988281 163.46875 C 183.898438 163.308594 183.757812 163.183594 183.589844 163.109375 L 177.898438 160.660156 C 177.898438 160.660156 165.742188 139.460938 165.742188 139.460938 C 165.683594 139.355469 165.667969 139.230469 165.699219 139.113281 C 165.730469 138.996094 165.804688 138.898438 165.910156 138.835938 C 165.78125 138.910156 165.636719 138.949219 165.488281 138.949219 L 165.910156 138.835938 C 166.011719 138.777344 166.136719 138.757812 166.25 138.789062 C 166.367188 138.820312 166.464844 138.898438 166.527344 139.003906 C 168.792969 142.957031 176.234375 155.9375 176.234375 155.9375 C 176.464844 156.339844 176.980469 156.480469 177.382812 156.246094 L 179.625 154.941406 C 180.027344 154.707031 180.164062 154.191406 179.933594 153.785156 C 179.933594 153.785156 172.449219 140.730469 170.207031 136.820312 C 170.152344 136.722656 170.136719 136.609375 170.164062 136.503906 C 170.195312 136.394531 170.261719 136.304688 170.359375 136.25 C 170.46875 136.183594 170.605469 136.164062 170.730469 136.199219 C 170.859375 136.234375 170.964844 136.316406 171.03125 136.429688 L 180.714844 153.328125 C 180.949219 153.734375 181.464844 153.871094 181.867188 153.640625 L 184.109375 152.335938 C 184.511719 152.101562 184.648438 151.582031 184.414062 151.179688 C 184.414062 151.179688 176.976562 138.199219 174.710938 134.246094 C 174.648438 134.140625 174.632812 134.015625 174.664062 133.898438 C 174.695312 133.78125 174.769531 133.683594 174.875 133.621094 C 175.09375 133.496094 175.367188 133.570312 175.492188 133.789062 L 187.648438 154.992188 L 186.910156 161.183594 C 186.886719 161.363281 186.921875 161.546875 187.015625 161.707031 Z M 194.984375 161.1875 L 193.023438 164.605469 C 192.792969 165.011719 192.929688 165.53125 193.332031 165.761719 C 193.734375 166 194.25 165.859375 194.480469 165.453125 L 196.628906 161.707031 L 196.550781 161.753906 C 196.710938 161.578125 196.804688 161.328125 196.691406 160.988281 C 193.898438 152.738281 196.851562 143.628906 203.933594 138.625 C 205.707031 137.367188 207.449219 136.292969 208.972656 135.648438 C 209.894531 135.257812 210.71875 135.023438 211.414062 135.039062 C 212.871094 135.074219 214.429688 136 215.199219 137.246094 C 215.574219 137.847656 215.792969 138.6875 215.925781 139.679688 C 216.144531 141.328125 216.097656 143.371094 215.90625 145.53125 C 215.90625 145.53125 215.90625 145.535156 215.90625 145.535156 C 215.152344 154.214844 208.789062 161.351562 200.300781 163.042969 L 199.65625 163.46875 L 195.644531 170.464844 C 195.410156 170.871094 195.550781 171.390625 195.953125 171.625 C 196.351562 171.855469 196.867188 171.71875 197.101562 171.3125 L 200.925781 164.640625 C 209.996094 162.703125 216.769531 155.015625 217.582031 145.683594 C 217.929688 141.746094 217.75 138.164062 216.628906 136.351562 C 215.578125 134.648438 213.445312 133.390625 211.453125 133.34375 C 209.363281 133.296875 206.191406 134.953125 202.964844 137.238281 C 195.371094 142.605469 192.148438 152.320312 194.984375 161.1875 Z M 203.003906 143.875 C 205.429688 141.082031 207.824219 139.265625 210.246094 138.941406 C 210.707031 138.878906 211.03125 138.453125 210.972656 137.992188 C 210.910156 137.527344 210.488281 137.199219 210.027344 137.261719 C 207.273438 137.628906 204.492188 139.589844 201.738281 142.757812 C 201.433594 143.109375 201.46875 143.644531 201.820312 143.953125 C 202.167969 144.261719 202.699219 144.226562 203.003906 143.875 Z M 203.003906 143.875 " fill-opacity="1" fill-rule="evenodd"/></g></svg>